<svg xmlns="http://www.w3.org/2000/svg" xmlns:xlink="http://www.w3.org/1999/xlink" fill="none" version="1.1" width="383.6717529296875" height="375.1197509765625" viewBox="0 0 383.6717529296875 375.1197509765625"><g transform="matrix(0.9063077569007874,0.42261824011802673,-0.42261824011802673,0.9063077569007874,13.482814537749164,-49.75455833684009)"><g><path d="M188.38242657714844,141.52023474121094Q190.13680057714845,143.25223474121094,192.60228657714845,143.25123474121094L192.60231657714843,143.25123474121094L270.42861657714843,143.19723474121093Q272.9178165771484,143.19523474121092,274.6748165771484,141.43223474121095Q276.4318165771484,139.66923474121094,276.42451657714844,137.17923474121093L276.23251657714843,71.84883474121094L276.0439165771484,7.433584741210938Q276.0333165771484,3.7962047412109374,272.8034165771484,2.1233447412109374Q269.57351657714844,0.4504847412109374,266.59641657714843,2.5404547412109375L188.25636657714844,57.53793474121094Q185.66644657714843,59.35613474121094,185.70427657714845,62.52033474121094L186.59857657714844,137.32223474121093Q186.62804657714844,139.78823474121094,188.38242657714844,141.52023474121094ZM196.55057657714843,133.24823474121092L266.41271657714844,133.20023474121092L266.2326165771484,71.87823474121093L266.0664165771484,15.130804741210937L195.72878657714844,64.51023474121094L196.55057657714843,133.24823474121092Z" fill-rule="evenodd" fill="#FFFFFF" fill-opacity="1"/></g><g><path d="M268.6663794482422,55.570531490478515Q266.9255294482422,57.32643549047852,266.9272494482422,59.79903149047851L266.9810794482422,137.43622149047852Q266.9827994482422,139.92542149047853,268.7461094482422,141.68242149047853Q270.5094094482422,143.4393214904785,272.9986194482422,143.43202149047852L338.4836594482422,143.2405214904785L403.04755944824217,143.05242149047854Q406.6895594482422,143.04172149047852,408.3615594482422,139.80542149047852Q410.0325594482422,136.56912149047852,407.93255944824216,133.59302149047852L352.9951594482422,55.74038149047851Q351.1849594482422,53.17506149047851,348.04535944824215,53.199921490478516L272.8797444482422,53.79506149047852Q270.40722944824216,53.81463149047852,268.6663794482422,55.570531490478515ZM276.9299994482422,63.76330149047852L276.9782994482422,133.42042149047853L338.4543594482422,133.24062149047853L395.3275594482422,133.0748214904785L346.0314594482422,63.21618149047852L276.9299994482422,63.76330149047852Z" fill-rule="evenodd" fill="#FFFFFF" fill-opacity="1"/></g><g><path d="M356.4906494140625,137.82167853515625Q354.7473494140625,136.14749853515625,352.3303494140625,136.14915853515626L274.4769494140625,136.20288853515626Q271.9877194140625,136.20460853515624,270.2307594140625,137.96794853515624Q268.4737994140625,139.73129853515624,268.4811194140625,142.22051853515626L268.6730594140625,207.55129853515626L268.8616994140625,271.9764985351562Q268.8723194140625,275.60549853515624,272.0912794140625,277.28049853515626Q275.3102694140625,278.95649853515624,278.2889494140625,276.88349853515626L358.6964494140625,220.92569853515624Q361.39494941406247,219.04779853515623,361.2644494140625,215.76269853515623L358.3298494140625,141.91093053515624Q358.2338494140625,139.49585853515626,356.4906494140625,137.82167853515625ZM348.4904494140625,146.15181853515625L278.4928494140625,146.20011853515626L278.6730194140625,207.52189853515625L278.8393194140625,264.31749853515623L351.18524941406247,213.96969853515625L348.4904494140625,146.15181853515625Z" fill-rule="evenodd" fill="#FFFFFF" fill-opacity="1"/></g><g><path d="M255.28456640625,239.05836091308595Q256.98556640625,237.30976091308594,256.98356640625,234.86996091308595L256.93056640625,157.21432691308593Q256.92856640625,154.72510091308592,255.16456640625,152.96815091308594Q253.40156640625,151.21123091308593,250.91256640625,151.21851091308594L185.42746640625,151.41002091308593L120.82326640625,151.59830091308595Q117.21672640625,151.60882091308594,115.53392640625,154.79872091308593Q113.85112640625,157.98862091308592,115.87863640625,160.97132091308595L169.78836640625,240.27856091308593Q171.63206640625,242.99066091308595,174.91026640625,242.90336091308592L251.14356640625,240.87196091308596Q253.58256640625,240.80696091308593,255.28456640625,239.05836091308595ZM246.98156640625,230.97936091308594L246.93256640625,161.23019091308595L185.45676640624998,161.40998091308595L128.38150640625,161.57632091308594L176.82946640625,232.84866091308595L246.98156640625,230.97936091308594Z" fill-rule="evenodd" fill="#FFFFFF" fill-opacity="1"/></g></g></svg>